<svg width="139" height="42" viewBox="0 0 139 42" fill="none" xmlns="http://www.w3.org/2000/svg">
<path d="M33.724 37.5809C37.7426 33.5622 40.0003 28.1118 40.0003 22.4286C40.0003 16.7454 37.7426 11.2949 33.724 7.27629C29.7054 3.25765 24.2549 1 18.5717 1C12.8885 0.999999 7.43807 3.25764 3.41943 7.27628L10.4905 14.3473C11.6063 15.4631 13.4081 15.4074 14.8276 14.7181C15.9836 14.1568 17.2622 13.8571 18.5717 13.8571C20.845 13.8571 23.0252 14.7602 24.6326 16.3677C26.2401 17.9751 27.1431 20.1553 27.1431 22.4286C27.1431 23.7381 26.8435 25.0167 26.2822 26.1727C25.5929 27.5922 25.5372 29.394 26.6529 30.5098L33.724 37.5809Z" fill="#3480F8"/>
<path d="M30 41H19.5098C17.9943 41 16.5408 40.398 15.4692 39.3263L1.67368 25.5308C0.60204 24.4592 0 23.0057 0 21.4902V11L30 41Z" fill="#34C2FF"/>
<path d="M10.7143 40.9999H4.28571C1.91878 40.9999 0 39.0812 0 36.7142V30.2856L10.7143 40.9999Z" fill="#34C2FF"/>
<path d="M49.31 6.54H54.52V32H49.31V6.54ZM61.87 20.94V32H56.74V12.89H61.58L61.66 17.66H61.35C61.8567 16.0667 62.6167 14.8333 63.63 13.96C64.65 13.0867 65.97 12.65 67.59 12.65C68.91 12.65 70.06 12.94 71.04 13.52C72.02 14.0933 72.7833 14.92 73.33 16C73.8767 17.0733 74.15 18.3567 74.15 19.85V32H69.03V20.74C69.03 19.5533 68.7233 18.6233 68.11 17.95C67.5033 17.2767 66.6567 16.94 65.57 16.94C64.8567 16.94 64.2167 17.0967 63.65 17.41C63.09 17.7233 62.6533 18.1767 62.34 18.77C62.0267 19.3633 61.87 20.0867 61.87 20.94ZM74.41 12.89H85.74V16.81H74.41V12.89ZM77.04 26.86V8.35H82.17V26.41C82.17 27.0167 82.3033 27.4633 82.57 27.75C82.8367 28.0433 83.2833 28.19 83.91 28.19C84.1033 28.19 84.3767 28.1633 84.73 28.11C85.0833 28.0633 85.35 28.0167 85.53 27.97L86.27 31.81C85.6967 31.9833 85.13 32.1033 84.57 32.17C84.0033 32.2367 83.4633 32.27 82.95 32.27C81.0367 32.27 79.5733 31.8033 78.56 30.87C77.5467 29.9367 77.04 28.6 77.04 26.86ZM95.43 32.38C93.4767 32.38 91.7933 31.98 90.38 31.18C88.9733 30.38 87.89 29.2467 87.13 27.78C86.37 26.3067 85.99 24.5633 85.99 22.55C85.99 20.5767 86.3667 18.85 87.12 17.37C87.8733 15.89 88.94 14.7333 90.32 13.9C91.6933 13.0667 93.31 12.65 95.17 12.65C96.4233 12.65 97.59 12.85 98.67 13.25C99.7567 13.65 100.71 14.2533 101.53 15.06C102.35 15.86 102.99 16.8633 103.45 18.07C103.91 19.2767 104.14 20.7 104.14 22.34V23.78H88.09V20.57H101.63L99.24 21.42C99.24 20.4267 99.0867 19.5633 98.78 18.83C98.48 18.0967 98.03 17.5267 97.43 17.12C96.8367 16.72 96.0933 16.52 95.2 16.52C94.3267 16.52 93.58 16.7233 92.96 17.13C92.34 17.5433 91.87 18.1 91.55 18.8C91.23 19.5 91.07 20.3 91.07 21.2V23.47C91.07 24.5767 91.2533 25.5067 91.62 26.26C91.9933 27.0133 92.5133 27.5767 93.18 27.95C93.8467 28.3233 94.6233 28.51 95.51 28.51C96.1167 28.51 96.6633 28.4267 97.15 28.26C97.6433 28.0867 98.0633 27.8333 98.41 27.5C98.7567 27.16 99.02 26.7467 99.2 26.26L103.85 27.13C103.543 28.1767 103.01 29.0967 102.25 29.89C101.483 30.6833 100.527 31.2967 99.38 31.73C98.24 32.1633 96.9233 32.38 95.43 32.38ZM110.5 32H105.37V12.89H110.33V16.23H110.53C110.883 15.0433 111.473 14.1467 112.3 13.54C113.127 12.94 114.077 12.64 115.15 12.64C115.41 12.64 115.69 12.6533 115.99 12.68C116.29 12.7067 116.56 12.75 116.8 12.81V17.39C116.573 17.31 116.243 17.2467 115.81 17.2C115.377 17.1533 114.967 17.13 114.58 17.13C113.807 17.13 113.107 17.3 112.48 17.64C111.853 17.9733 111.367 18.44 111.02 19.04C110.673 19.6333 110.5 20.33 110.5 21.13V32ZM122.68 32.38C121.473 32.38 120.39 32.1667 119.43 31.74C118.463 31.3067 117.703 30.6667 117.15 29.82C116.597 28.9733 116.32 27.9167 116.32 26.65C116.32 25.59 116.517 24.7 116.91 23.98C117.303 23.2667 117.84 22.6933 118.52 22.26C119.2 21.8267 119.97 21.4967 120.83 21.27C121.69 21.0433 122.593 20.8833 123.54 20.79C124.64 20.6767 125.53 20.57 126.21 20.47C126.89 20.3767 127.387 20.2233 127.7 20.01C128.013 19.8033 128.17 19.4933 128.17 19.08V18.99C128.17 18.4433 128.053 17.9833 127.82 17.61C127.593 17.2367 127.26 16.95 126.82 16.75C126.373 16.55 125.827 16.45 125.18 16.45C124.513 16.45 123.937 16.55 123.45 16.75C122.957 16.95 122.557 17.2133 122.25 17.54C121.943 17.8733 121.717 18.2433 121.57 18.65L116.87 17.87C117.203 16.7633 117.75 15.8233 118.51 15.05C119.277 14.27 120.227 13.6767 121.36 13.27C122.493 12.8567 123.767 12.65 125.18 12.65C126.213 12.65 127.213 12.7733 128.18 13.02C129.153 13.2667 130.023 13.6467 130.79 14.16C131.557 14.6733 132.167 15.34 132.62 16.16C133.067 16.98 133.29 17.97 133.29 19.13V32H128.44V29.35H128.27C127.963 29.9433 127.553 30.4633 127.04 30.91C126.527 31.3633 125.907 31.72 125.18 31.98C124.46 32.2467 123.627 32.38 122.68 32.38ZM124.13 28.77C124.943 28.77 125.653 28.61 126.26 28.29C126.873 27.97 127.35 27.5367 127.69 26.99C128.03 26.4433 128.2 25.8333 128.2 25.16V23.1C128.053 23.2133 127.827 23.3133 127.52 23.4C127.213 23.4933 126.87 23.5733 126.49 23.64C126.117 23.7133 125.747 23.7767 125.38 23.83C125.013 23.89 124.69 23.9367 124.41 23.97C123.783 24.0567 123.23 24.2033 122.75 24.41C122.27 24.6167 121.9 24.8867 121.64 25.22C121.38 25.56 121.25 25.99 121.25 26.51C121.25 27.0033 121.373 27.4167 121.62 27.75C121.873 28.09 122.213 28.3433 122.64 28.51C123.067 28.6833 123.563 28.77 124.13 28.77Z" fill="#111111"/>
<path d="M49.7045 36.0909V39H49.3523V36.0909H49.7045ZM50.7006 37.6875V39H50.3654V36.8182H50.6893V37.1591H50.7177C50.7688 37.0483 50.8465 36.9593 50.9506 36.892C51.0548 36.8239 51.1893 36.7898 51.354 36.7898C51.5018 36.7898 51.631 36.8201 51.7418 36.8807C51.8526 36.9403 51.9388 37.0312 52.0004 37.1534C52.0619 37.2746 52.0927 37.428 52.0927 37.6136V39H51.7575V37.6364C51.7575 37.465 51.7129 37.3314 51.6239 37.2358C51.5349 37.1392 51.4128 37.0909 51.2575 37.0909C51.1504 37.0909 51.0548 37.1141 50.9705 37.1605C50.8872 37.2069 50.8214 37.2746 50.7731 37.3636C50.7248 37.4527 50.7006 37.5606 50.7006 37.6875ZM53.6541 36.8182V37.1023H52.5234V36.8182H53.6541ZM52.853 36.2955H53.1882V38.375C53.1882 38.4697 53.2019 38.5407 53.2294 38.5881C53.2578 38.6345 53.2938 38.6657 53.3374 38.6818C53.3819 38.697 53.4287 38.7045 53.478 38.7045C53.5149 38.7045 53.5452 38.7027 53.5689 38.6989C53.5926 38.6941 53.6115 38.6903 53.6257 38.6875L53.6939 38.9886C53.6712 38.9972 53.6394 39.0057 53.5987 39.0142C53.558 39.0237 53.5064 39.0284 53.4439 39.0284C53.3492 39.0284 53.2564 39.008 53.1655 38.9673C53.0755 38.9266 53.0007 38.8646 52.9411 38.7812C52.8823 38.6979 52.853 38.5928 52.853 38.4659V36.2955ZM55.0497 39.0455C54.8395 39.0455 54.6581 38.9991 54.5057 38.9062C54.3542 38.8125 54.2372 38.6818 54.1548 38.5142C54.0734 38.3456 54.0327 38.1496 54.0327 37.9261C54.0327 37.7027 54.0734 37.5057 54.1548 37.3352C54.2372 37.1638 54.3518 37.0303 54.4986 36.9347C54.6463 36.8381 54.8187 36.7898 55.0156 36.7898C55.1293 36.7898 55.2415 36.8087 55.3523 36.8466C55.4631 36.8845 55.5639 36.946 55.6548 37.0312C55.7457 37.1155 55.8182 37.2273 55.8722 37.3665C55.9261 37.5057 55.9531 37.6771 55.9531 37.8807V38.0227H54.2713V37.733H55.6122C55.6122 37.6098 55.5876 37.5 55.5384 37.4034C55.4901 37.3068 55.4209 37.2306 55.331 37.1747C55.242 37.1188 55.1368 37.0909 55.0156 37.0909C54.8821 37.0909 54.7666 37.1241 54.669 37.1903C54.5724 37.2557 54.4981 37.3409 54.446 37.446C54.3939 37.5511 54.3679 37.6638 54.3679 37.7841V37.9773C54.3679 38.142 54.3963 38.2817 54.4531 38.3963C54.5109 38.5099 54.5909 38.5966 54.6932 38.6562C54.7955 38.715 54.9143 38.7443 55.0497 38.7443C55.1378 38.7443 55.2173 38.732 55.2884 38.7074C55.3603 38.6818 55.4223 38.6439 55.4744 38.5938C55.5265 38.5426 55.5668 38.4792 55.5952 38.4034L55.919 38.4943C55.8849 38.6042 55.8277 38.7008 55.7472 38.7841C55.6667 38.8665 55.5672 38.9309 55.4489 38.9773C55.3305 39.0227 55.1974 39.0455 55.0497 39.0455ZM56.4631 39V36.8182H56.7869V37.1477H56.8097C56.8494 37.0398 56.9214 36.9522 57.0256 36.8849C57.1297 36.8177 57.2472 36.7841 57.3778 36.7841C57.4025 36.7841 57.4332 36.7846 57.4702 36.7855C57.5071 36.7865 57.535 36.7879 57.554 36.7898V37.1307C57.5426 37.1278 57.5166 37.1236 57.4759 37.1179C57.4361 37.1113 57.3939 37.108 57.3494 37.108C57.2434 37.108 57.1487 37.1302 57.0653 37.1747C56.983 37.2183 56.9176 37.2789 56.8693 37.3565C56.822 37.4332 56.7983 37.5208 56.7983 37.6193V39H56.4631ZM58.2866 37.6875V39H57.9513V36.8182H58.2752V37.1591H58.3036C58.3548 37.0483 58.4324 36.9593 58.5366 36.892C58.6407 36.8239 58.7752 36.7898 58.94 36.7898C59.0877 36.7898 59.217 36.8201 59.3278 36.8807C59.4386 36.9403 59.5247 37.0312 59.5863 37.1534C59.6478 37.2746 59.6786 37.428 59.6786 37.6136V39H59.3434V37.6364C59.3434 37.465 59.2989 37.3314 59.2099 37.2358C59.1209 37.1392 58.9987 37.0909 58.8434 37.0909C58.7364 37.0909 58.6407 37.1141 58.5565 37.1605C58.4731 37.2069 58.4073 37.2746 58.359 37.3636C58.3107 37.4527 58.2866 37.5606 58.2866 37.6875ZM60.9332 39.0511C60.795 39.0511 60.6695 39.0251 60.5568 38.973C60.4441 38.92 60.3546 38.8438 60.2884 38.7443C60.2221 38.6439 60.1889 38.5227 60.1889 38.3807C60.1889 38.2557 60.2135 38.1544 60.2628 38.0767C60.312 37.9981 60.3778 37.9366 60.4602 37.892C60.5426 37.8475 60.6335 37.8144 60.733 37.7926C60.8333 37.7699 60.9342 37.7519 61.0355 37.7386C61.1681 37.7216 61.2756 37.7088 61.358 37.7003C61.4413 37.6908 61.5019 37.6752 61.5398 37.6534C61.5786 37.6316 61.598 37.5937 61.598 37.5398V37.5284C61.598 37.3883 61.5597 37.2794 61.483 37.2017C61.4072 37.1241 61.2921 37.0852 61.1378 37.0852C60.9777 37.0852 60.8523 37.1203 60.7614 37.1903C60.6705 37.2604 60.6065 37.3352 60.5696 37.4148L60.2514 37.3011C60.3082 37.1686 60.384 37.0653 60.4787 36.9915C60.5743 36.9167 60.6785 36.8646 60.7912 36.8352C60.9048 36.8049 61.0166 36.7898 61.1264 36.7898C61.1965 36.7898 61.277 36.7983 61.3679 36.8153C61.4598 36.8314 61.5483 36.8651 61.6335 36.9162C61.7197 36.9673 61.7912 37.0445 61.848 37.1477C61.9048 37.2509 61.9332 37.3892 61.9332 37.5625V39H61.598V38.7045H61.581C61.5582 38.7519 61.5204 38.8026 61.4673 38.8565C61.4143 38.9105 61.3438 38.9564 61.2557 38.9943C61.1676 39.0322 61.0601 39.0511 60.9332 39.0511ZM60.9844 38.75C61.117 38.75 61.2287 38.724 61.3196 38.6719C61.4115 38.6198 61.4806 38.5526 61.527 38.4702C61.5743 38.3878 61.598 38.3011 61.598 38.2102V37.9034C61.5838 37.9205 61.5526 37.9361 61.5043 37.9503C61.4569 37.9635 61.402 37.9754 61.3395 37.9858C61.2779 37.9953 61.2178 38.0038 61.1591 38.0114C61.1013 38.018 61.0545 38.0237 61.0185 38.0284C60.9313 38.0398 60.8499 38.0582 60.7741 38.0838C60.6993 38.1084 60.6387 38.1458 60.5923 38.196C60.5469 38.2453 60.5241 38.3125 60.5241 38.3977C60.5241 38.5142 60.5672 38.6023 60.6534 38.6619C60.7405 38.7206 60.8509 38.75 60.9844 38.75ZM63.494 36.8182V37.1023H62.3633V36.8182H63.494ZM62.6928 36.2955H63.0281V38.375C63.0281 38.4697 63.0418 38.5407 63.0692 38.5881C63.0977 38.6345 63.1336 38.6657 63.1772 38.6818C63.2217 38.697 63.2686 38.7045 63.3178 38.7045C63.3548 38.7045 63.3851 38.7027 63.4087 38.6989C63.4324 38.6941 63.4513 38.6903 63.4656 38.6875L63.5337 38.9886C63.511 38.9972 63.4793 39.0057 63.4386 39.0142C63.3978 39.0237 63.3462 39.0284 63.2837 39.0284C63.189 39.0284 63.0962 39.008 63.0053 38.9673C62.9154 38.9266 62.8406 38.8646 62.7809 38.7812C62.7222 38.6979 62.6928 38.5928 62.6928 38.4659V36.2955ZM63.9982 39V36.8182H64.3335V39H63.9982ZM64.1687 36.4545C64.1033 36.4545 64.047 36.4323 63.9996 36.3878C63.9532 36.3433 63.93 36.2898 63.93 36.2273C63.93 36.1648 63.9532 36.1113 63.9996 36.0668C64.047 36.0223 64.1033 36 64.1687 36C64.234 36 64.2899 36.0223 64.3363 36.0668C64.3836 36.1113 64.4073 36.1648 64.4073 36.2273C64.4073 36.2898 64.3836 36.3433 64.3363 36.3878C64.2899 36.4323 64.234 36.4545 64.1687 36.4545ZM65.8338 39.0455C65.6368 39.0455 65.464 38.9986 65.3153 38.9048C65.1676 38.8111 65.0521 38.6799 64.9688 38.5114C64.8864 38.3428 64.8452 38.1458 64.8452 37.9205C64.8452 37.6932 64.8864 37.4948 64.9688 37.3253C65.0521 37.1558 65.1676 37.0241 65.3153 36.9304C65.464 36.8366 65.6368 36.7898 65.8338 36.7898C66.0308 36.7898 66.2031 36.8366 66.3509 36.9304C66.4995 37.0241 66.6151 37.1558 66.6974 37.3253C66.7808 37.4948 66.8224 37.6932 66.8224 37.9205C66.8224 38.1458 66.7808 38.3428 66.6974 38.5114C66.6151 38.6799 66.4995 38.8111 66.3509 38.9048C66.2031 38.9986 66.0308 39.0455 65.8338 39.0455ZM65.8338 38.7443C65.9834 38.7443 66.1065 38.706 66.2031 38.6293C66.2997 38.5526 66.3712 38.4517 66.4176 38.3267C66.464 38.2017 66.4872 38.0663 66.4872 37.9205C66.4872 37.7746 66.464 37.6387 66.4176 37.5128C66.3712 37.3868 66.2997 37.285 66.2031 37.2074C66.1065 37.1297 65.9834 37.0909 65.8338 37.0909C65.6842 37.0909 65.5611 37.1297 65.4645 37.2074C65.3679 37.285 65.2964 37.3868 65.25 37.5128C65.2036 37.6387 65.1804 37.7746 65.1804 37.9205C65.1804 38.0663 65.2036 38.2017 65.25 38.3267C65.2964 38.4517 65.3679 38.5526 65.4645 38.6293C65.5611 38.706 65.6842 38.7443 65.8338 38.7443ZM67.6694 37.6875V39H67.3342V36.8182H67.658V37.1591H67.6864C67.7376 37.0483 67.8152 36.9593 67.9194 36.892C68.0236 36.8239 68.158 36.7898 68.3228 36.7898C68.4705 36.7898 68.5998 36.8201 68.7106 36.8807C68.8214 36.9403 68.9076 37.0312 68.9691 37.1534C69.0307 37.2746 69.0614 37.428 69.0614 37.6136V39H68.7262V37.6364C68.7262 37.465 68.6817 37.3314 68.5927 37.2358C68.5037 37.1392 68.3815 37.0909 68.2262 37.0909C68.1192 37.0909 68.0236 37.1141 67.9393 37.1605C67.8559 37.2069 67.7901 37.2746 67.7418 37.3636C67.6935 37.4527 67.6694 37.5606 67.6694 37.6875ZM70.3161 39.0511C70.1778 39.0511 70.0523 39.0251 69.9396 38.973C69.8269 38.92 69.7375 38.8438 69.6712 38.7443C69.6049 38.6439 69.5717 38.5227 69.5717 38.3807C69.5717 38.2557 69.5964 38.1544 69.6456 38.0767C69.6948 37.9981 69.7607 37.9366 69.843 37.892C69.9254 37.8475 70.0163 37.8144 70.1158 37.7926C70.2161 37.7699 70.317 37.7519 70.4183 37.7386C70.5509 37.7216 70.6584 37.7088 70.7408 37.7003C70.8241 37.6908 70.8847 37.6752 70.9226 37.6534C70.9614 37.6316 70.9808 37.5937 70.9808 37.5398V37.5284C70.9808 37.3883 70.9425 37.2794 70.8658 37.2017C70.79 37.1241 70.675 37.0852 70.5206 37.0852C70.3606 37.0852 70.2351 37.1203 70.1442 37.1903C70.0533 37.2604 69.9893 37.3352 69.9524 37.4148L69.6342 37.3011C69.6911 37.1686 69.7668 37.0653 69.8615 36.9915C69.9571 36.9167 70.0613 36.8646 70.174 36.8352C70.2876 36.8049 70.3994 36.7898 70.5092 36.7898C70.5793 36.7898 70.6598 36.7983 70.7507 36.8153C70.8426 36.8314 70.9311 36.8651 71.0163 36.9162C71.1025 36.9673 71.174 37.0445 71.2308 37.1477C71.2876 37.2509 71.3161 37.3892 71.3161 37.5625V39H70.9808V38.7045H70.9638C70.9411 38.7519 70.9032 38.8026 70.8501 38.8565C70.7971 38.9105 70.7266 38.9564 70.6385 38.9943C70.5504 39.0322 70.4429 39.0511 70.3161 39.0511ZM70.3672 38.75C70.4998 38.75 70.6115 38.724 70.7024 38.6719C70.7943 38.6198 70.8634 38.5526 70.9098 38.4702C70.9571 38.3878 70.9808 38.3011 70.9808 38.2102V37.9034C70.9666 37.9205 70.9354 37.9361 70.8871 37.9503C70.8397 37.9635 70.7848 37.9754 70.7223 37.9858C70.6607 37.9953 70.6006 38.0038 70.5419 38.0114C70.4841 38.018 70.4373 38.0237 70.4013 38.0284C70.3142 38.0398 70.2327 38.0582 70.157 38.0838C70.0821 38.1084 70.0215 38.1458 69.9751 38.196C69.9297 38.2453 69.907 38.3125 69.907 38.3977C69.907 38.5142 69.95 38.6023 70.0362 38.6619C70.1233 38.7206 70.2337 38.75 70.3672 38.75ZM72.2631 36.0909V39H71.9279V36.0909H72.2631ZM73.8885 36.4034V36.0909H76.0703V36.4034H75.1555V39H74.8033V36.4034H73.8885ZM77.1385 39.0455C76.9415 39.0455 76.7687 38.9986 76.62 38.9048C76.4723 38.8111 76.3568 38.6799 76.2734 38.5114C76.1911 38.3428 76.1499 38.1458 76.1499 37.9205C76.1499 37.6932 76.1911 37.4948 76.2734 37.3253C76.3568 37.1558 76.4723 37.0241 76.62 36.9304C76.7687 36.8366 76.9415 36.7898 77.1385 36.7898C77.3355 36.7898 77.5078 36.8366 77.6555 36.9304C77.8042 37.0241 77.9197 37.1558 78.0021 37.3253C78.0855 37.4948 78.1271 37.6932 78.1271 37.9205C78.1271 38.1458 78.0855 38.3428 78.0021 38.5114C77.9197 38.6799 77.8042 38.8111 77.6555 38.9048C77.5078 38.9986 77.3355 39.0455 77.1385 39.0455ZM77.1385 38.7443C77.2881 38.7443 77.4112 38.706 77.5078 38.6293C77.6044 38.5526 77.6759 38.4517 77.7223 38.3267C77.7687 38.2017 77.7919 38.0663 77.7919 37.9205C77.7919 37.7746 77.7687 37.6387 77.7223 37.5128C77.6759 37.3868 77.6044 37.285 77.5078 37.2074C77.4112 37.1297 77.2881 37.0909 77.1385 37.0909C76.9889 37.0909 76.8658 37.1297 76.7692 37.2074C76.6726 37.285 76.6011 37.3868 76.5547 37.5128C76.5083 37.6387 76.4851 37.7746 76.4851 37.9205C76.4851 38.0663 76.5083 38.2017 76.5547 38.3267C76.6011 38.4517 76.6726 38.5526 76.7692 38.6293C76.8658 38.706 76.9889 38.7443 77.1385 38.7443ZM80.0138 38.108V36.8182H80.3491V39H80.0138V38.6307H79.9911C79.94 38.7415 79.8604 38.8357 79.7525 38.9134C79.6445 38.9901 79.5082 39.0284 79.3434 39.0284C79.207 39.0284 79.0858 38.9986 78.9798 38.9389C78.8737 38.8783 78.7904 38.7874 78.7298 38.6662C78.6692 38.544 78.6388 38.3902 78.6388 38.2045V36.8182H78.9741V38.1818C78.9741 38.3409 79.0186 38.4678 79.1076 38.5625C79.1976 38.6572 79.3121 38.7045 79.4513 38.7045C79.5347 38.7045 79.6194 38.6832 79.7056 38.6406C79.7927 38.598 79.8656 38.5327 79.9244 38.4446C79.984 38.3565 80.0138 38.2443 80.0138 38.108ZM80.9631 39V36.8182H81.2869V37.1477H81.3097C81.3494 37.0398 81.4214 36.9522 81.5256 36.8849C81.6297 36.8177 81.7472 36.7841 81.8778 36.7841C81.9025 36.7841 81.9332 36.7846 81.9702 36.7855C82.0071 36.7865 82.035 36.7879 82.054 36.7898V37.1307C82.0426 37.1278 82.0166 37.1236 81.9759 37.1179C81.9361 37.1113 81.8939 37.108 81.8494 37.108C81.7434 37.108 81.6487 37.1302 81.5653 37.1747C81.483 37.2183 81.4176 37.2789 81.3693 37.3565C81.322 37.4332 81.2983 37.5208 81.2983 37.6193V39H80.9631ZM82.4513 39V36.8182H82.7866V39H82.4513ZM82.6218 36.4545C82.5565 36.4545 82.5001 36.4323 82.4528 36.3878C82.4064 36.3433 82.3832 36.2898 82.3832 36.2273C82.3832 36.1648 82.4064 36.1113 82.4528 36.0668C82.5001 36.0223 82.5565 36 82.6218 36C82.6871 36 82.743 36.0223 82.7894 36.0668C82.8368 36.1113 82.8604 36.1648 82.8604 36.2273C82.8604 36.2898 82.8368 36.3433 82.7894 36.3878C82.743 36.4323 82.6871 36.4545 82.6218 36.4545ZM84.946 37.3068L84.6449 37.392C84.6259 37.3419 84.598 37.2931 84.5611 37.2457C84.5251 37.1974 84.4759 37.1577 84.4134 37.1264C84.3509 37.0952 84.2708 37.0795 84.1733 37.0795C84.0398 37.0795 83.9285 37.1103 83.8395 37.1719C83.7514 37.2325 83.7074 37.3097 83.7074 37.4034C83.7074 37.4867 83.7377 37.5526 83.7983 37.6009C83.8589 37.6491 83.9536 37.6894 84.0824 37.7216L84.4062 37.8011C84.6013 37.8485 84.7467 37.9209 84.8423 38.0185C84.938 38.1151 84.9858 38.2396 84.9858 38.392C84.9858 38.517 84.9498 38.6288 84.8778 38.7273C84.8068 38.8258 84.7074 38.9034 84.5795 38.9602C84.4517 39.017 84.303 39.0455 84.1335 39.0455C83.911 39.0455 83.7268 38.9972 83.581 38.9006C83.4351 38.804 83.3428 38.6629 83.304 38.4773L83.6222 38.3977C83.6525 38.5152 83.7098 38.6032 83.794 38.6619C83.8793 38.7206 83.9905 38.75 84.1278 38.75C84.2841 38.75 84.4081 38.7169 84.5 38.6506C84.5928 38.5833 84.6392 38.5028 84.6392 38.4091C84.6392 38.3333 84.6127 38.2699 84.5597 38.2188C84.5066 38.1667 84.4252 38.1278 84.3153 38.1023L83.9517 38.017C83.7519 37.9697 83.6051 37.8963 83.5114 37.7969C83.4186 37.6965 83.3722 37.571 83.3722 37.4205C83.3722 37.2973 83.4067 37.1884 83.4759 37.0938C83.5459 36.9991 83.6411 36.9247 83.7614 36.8707C83.8826 36.8168 84.0199 36.7898 84.1733 36.7898C84.3892 36.7898 84.5587 36.8371 84.6818 36.9318C84.8059 37.0265 84.8939 37.1515 84.946 37.3068ZM85.4904 39V36.8182H85.8143V37.1591H85.8427C85.8881 37.0426 85.9615 36.9522 86.0629 36.8878C86.1642 36.8224 86.2859 36.7898 86.4279 36.7898C86.5719 36.7898 86.6916 36.8224 86.7873 36.8878C86.8839 36.9522 86.9592 37.0426 87.0131 37.1591H87.0359C87.0917 37.0464 87.1755 36.9569 87.2873 36.8906C87.399 36.8234 87.533 36.7898 87.6893 36.7898C87.8844 36.7898 88.0439 36.8509 88.168 36.973C88.292 37.0942 88.354 37.2831 88.354 37.5398V39H88.0188V37.5398C88.0188 37.3788 87.9748 37.2637 87.8867 37.1946C87.7987 37.1255 87.695 37.0909 87.5756 37.0909C87.4222 37.0909 87.3034 37.1373 87.2191 37.2301C87.1348 37.322 87.0927 37.4384 87.0927 37.5795V39H86.7518V37.5057C86.7518 37.3816 86.7115 37.2817 86.631 37.206C86.5505 37.1293 86.4469 37.0909 86.32 37.0909C86.2328 37.0909 86.1514 37.1141 86.0756 37.1605C86.0008 37.2069 85.9402 37.2713 85.8938 37.3537C85.8484 37.4351 85.8256 37.5294 85.8256 37.6364V39H85.4904ZM90.1374 39V36.0909H91.8931V36.4034H90.4897V37.3864H91.8022V37.6989H90.4897V38.6875H91.9158V39H90.1374ZM92.7326 36.8182L93.2553 37.7102L93.7781 36.8182H94.1644L93.4599 37.9091L94.1644 39H93.7781L93.2553 38.1534L92.7326 39H92.3462L93.0394 37.9091L92.3462 36.8182H92.7326ZM95.4393 39.0455C95.2347 39.0455 95.0586 38.9972 94.9109 38.9006C94.7631 38.804 94.6495 38.6709 94.57 38.5014C94.4904 38.3319 94.4506 38.1383 94.4506 37.9205C94.4506 37.6989 94.4914 37.5033 94.5728 37.3338C94.6552 37.1634 94.7698 37.0303 94.9165 36.9347C95.0643 36.8381 95.2366 36.7898 95.4336 36.7898C95.587 36.7898 95.7253 36.8182 95.8484 36.875C95.9715 36.9318 96.0723 37.0114 96.1509 37.1136C96.2295 37.2159 96.2783 37.3352 96.2972 37.4716H95.962C95.9364 37.3722 95.8796 37.2841 95.7915 37.2074C95.7044 37.1297 95.587 37.0909 95.4393 37.0909C95.3086 37.0909 95.194 37.125 95.0955 37.1932C94.998 37.2604 94.9218 37.3556 94.8668 37.4787C94.8129 37.6009 94.7859 37.7443 94.7859 37.9091C94.7859 38.0777 94.8124 38.2244 94.8654 38.3494C94.9194 38.4744 94.9951 38.5715 95.0927 38.6406C95.1912 38.7098 95.3067 38.7443 95.4393 38.7443C95.5264 38.7443 95.6055 38.7292 95.6765 38.6989C95.7475 38.6686 95.8076 38.625 95.8569 38.5682C95.9061 38.5114 95.9412 38.4432 95.962 38.3636H96.2972C96.2783 38.4924 96.2314 38.6084 96.1566 38.7116C96.0827 38.8139 95.9847 38.8954 95.8626 38.956C95.7414 39.0156 95.6003 39.0455 95.4393 39.0455ZM97.1225 37.6875V39H96.7873V36.0909H97.1225V37.1591H97.1509C97.2021 37.0464 97.2788 36.9569 97.381 36.8906C97.4843 36.8234 97.6216 36.7898 97.793 36.7898C97.9416 36.7898 98.0719 36.8196 98.1836 36.8793C98.2953 36.938 98.382 37.0284 98.4435 37.1506C98.506 37.2718 98.5373 37.4261 98.5373 37.6136V39H98.2021V37.6364C98.2021 37.4631 98.1571 37.3291 98.0671 37.2344C97.9781 37.1387 97.8545 37.0909 97.6964 37.0909C97.5865 37.0909 97.488 37.1141 97.4009 37.1605C97.3147 37.2069 97.2466 37.2746 97.1964 37.3636C97.1471 37.4527 97.1225 37.5606 97.1225 37.6875ZM99.7926 39.0511C99.6544 39.0511 99.5289 39.0251 99.4162 38.973C99.3035 38.92 99.214 38.8438 99.1477 38.7443C99.0814 38.6439 99.0483 38.5227 99.0483 38.3807C99.0483 38.2557 99.0729 38.1544 99.1222 38.0767C99.1714 37.9981 99.2372 37.9366 99.3196 37.892C99.402 37.8475 99.4929 37.8144 99.5923 37.7926C99.6927 37.7699 99.7936 37.7519 99.8949 37.7386C100.027 37.7216 100.135 37.7088 100.217 37.7003C100.301 37.6908 100.361 37.6752 100.399 37.6534C100.438 37.6316 100.457 37.5937 100.457 37.5398V37.5284C100.457 37.3883 100.419 37.2794 100.342 37.2017C100.267 37.1241 100.152 37.0852 99.9972 37.0852C99.8371 37.0852 99.7116 37.1203 99.6207 37.1903C99.5298 37.2604 99.4659 37.3352 99.429 37.4148L99.1108 37.3011C99.1676 37.1686 99.2434 37.0653 99.3381 36.9915C99.4337 36.9167 99.5379 36.8646 99.6506 36.8352C99.7642 36.8049 99.8759 36.7898 99.9858 36.7898C100.056 36.7898 100.136 36.7983 100.227 36.8153C100.319 36.8314 100.408 36.8651 100.493 36.9162C100.579 36.9673 100.651 37.0445 100.707 37.1477C100.764 37.2509 100.793 37.3892 100.793 37.5625V39H100.457V38.7045H100.44C100.418 38.7519 100.38 38.8026 100.327 38.8565C100.274 38.9105 100.203 38.9564 100.115 38.9943C100.027 39.0322 99.9195 39.0511 99.7926 39.0511ZM99.8438 38.75C99.9763 38.75 100.088 38.724 100.179 38.6719C100.271 38.6198 100.34 38.5526 100.386 38.4702C100.434 38.3878 100.457 38.3011 100.457 38.2102V37.9034C100.443 37.9205 100.412 37.9361 100.364 37.9503C100.316 37.9635 100.261 37.9754 100.199 37.9858C100.137 37.9953 100.077 38.0038 100.018 38.0114C99.9607 38.018 99.9138 38.0237 99.8778 38.0284C99.7907 38.0398 99.7093 38.0582 99.6335 38.0838C99.5587 38.1084 99.4981 38.1458 99.4517 38.196C99.4063 38.2453 99.3835 38.3125 99.3835 38.3977C99.3835 38.5142 99.4266 38.6023 99.5128 38.6619C99.5999 38.7206 99.7102 38.75 99.8438 38.75ZM101.74 37.6875V39H101.404V36.8182H101.728V37.1591H101.757C101.808 37.0483 101.886 36.9593 101.99 36.892C102.094 36.8239 102.228 36.7898 102.393 36.7898C102.541 36.7898 102.67 36.8201 102.781 36.8807C102.892 36.9403 102.978 37.0312 103.039 37.1534C103.101 37.2746 103.132 37.428 103.132 37.6136V39H102.797V37.6364C102.797 37.465 102.752 37.3314 102.663 37.2358C102.574 37.1392 102.452 37.0909 102.297 37.0909C102.19 37.0909 102.094 37.1141 102.01 37.1605C101.926 37.2069 101.86 37.2746 101.812 37.3636C101.764 37.4527 101.74 37.5606 101.74 37.6875ZM104.625 39.8636C104.463 39.8636 104.324 39.8428 104.207 39.8011C104.091 39.7604 103.994 39.7064 103.916 39.6392C103.839 39.5729 103.778 39.5019 103.733 39.4261L104 39.2386C104.03 39.2784 104.069 39.3239 104.115 39.375C104.161 39.4271 104.225 39.4721 104.305 39.5099C104.387 39.5488 104.493 39.5682 104.625 39.5682C104.801 39.5682 104.946 39.5256 105.061 39.4403C105.176 39.3551 105.233 39.2216 105.233 39.0398V38.5966H105.205C105.18 38.6364 105.145 38.6856 105.099 38.7443C105.055 38.8021 104.991 38.8537 104.906 38.8991C104.823 38.9437 104.71 38.9659 104.568 38.9659C104.392 38.9659 104.234 38.9242 104.094 38.8409C103.955 38.7576 103.844 38.6364 103.763 38.4773C103.682 38.3182 103.642 38.125 103.642 37.8977C103.642 37.6742 103.681 37.4796 103.76 37.3139C103.839 37.1473 103.948 37.0185 104.088 36.9276C104.228 36.8357 104.39 36.7898 104.574 36.7898C104.716 36.7898 104.829 36.8134 104.912 36.8608C104.996 36.9072 105.061 36.9602 105.105 37.0199C105.151 37.0786 105.186 37.1269 105.21 37.1648H105.244V36.8182H105.568V39.0625C105.568 39.25 105.526 39.4025 105.44 39.5199C105.356 39.6383 105.242 39.7249 105.099 39.7798C104.957 39.8357 104.799 39.8636 104.625 39.8636ZM104.614 38.6648C104.748 38.6648 104.862 38.634 104.955 38.5724C105.047 38.5109 105.118 38.4223 105.166 38.3068C105.214 38.1913 105.239 38.053 105.239 37.892C105.239 37.7348 105.215 37.5961 105.168 37.4759C105.12 37.3556 105.05 37.2614 104.957 37.1932C104.865 37.125 104.75 37.0909 104.614 37.0909C104.472 37.0909 104.353 37.1269 104.259 37.1989C104.165 37.2708 104.094 37.3674 104.047 37.4886C104 37.6098 103.977 37.7443 103.977 37.892C103.977 38.0436 104.001 38.1776 104.048 38.294C104.097 38.4096 104.168 38.5005 104.261 38.5668C104.356 38.6321 104.473 38.6648 104.614 38.6648ZM107.097 39.0455C106.886 39.0455 106.705 38.9991 106.553 38.9062C106.401 38.8125 106.284 38.6818 106.202 38.5142C106.12 38.3456 106.08 38.1496 106.08 37.9261C106.08 37.7027 106.12 37.5057 106.202 37.3352C106.284 37.1638 106.399 37.0303 106.545 36.9347C106.693 36.8381 106.866 36.7898 107.062 36.7898C107.176 36.7898 107.288 36.8087 107.399 36.8466C107.51 36.8845 107.611 36.946 107.702 37.0312C107.793 37.1155 107.865 37.2273 107.919 37.3665C107.973 37.5057 108 37.6771 108 37.8807V38.0227H106.318V37.733H107.659C107.659 37.6098 107.634 37.5 107.585 37.4034C107.537 37.3068 107.468 37.2306 107.378 37.1747C107.289 37.1188 107.184 37.0909 107.062 37.0909C106.929 37.0909 106.813 37.1241 106.716 37.1903C106.619 37.2557 106.545 37.3409 106.493 37.446C106.441 37.5511 106.415 37.6638 106.415 37.7841V37.9773C106.415 38.142 106.443 38.2817 106.5 38.3963C106.558 38.5099 106.638 38.5966 106.74 38.6562C106.842 38.715 106.961 38.7443 107.097 38.7443C107.185 38.7443 107.264 38.732 107.335 38.7074C107.407 38.6818 107.469 38.6439 107.521 38.5938C107.573 38.5426 107.614 38.4792 107.642 38.4034L107.966 38.4943C107.932 38.6042 107.875 38.7008 107.794 38.7841C107.714 38.8665 107.614 38.9309 107.496 38.9773C107.377 39.0227 107.244 39.0455 107.097 39.0455ZM109.8 39H109.43L110.499 36.0909H110.862L111.93 39H111.561L110.692 36.5511H110.669L109.8 39ZM109.936 37.8636H111.425V38.1761H109.936V37.8636ZM112.338 39.8182V36.8182H112.662V37.1648H112.702C112.726 37.1269 112.76 37.0786 112.804 37.0199C112.848 36.9602 112.912 36.9072 112.994 36.8608C113.078 36.8134 113.19 36.7898 113.332 36.7898C113.516 36.7898 113.678 36.8357 113.818 36.9276C113.958 37.0194 114.068 37.1496 114.146 37.3182C114.225 37.4867 114.264 37.6856 114.264 37.9148C114.264 38.1458 114.225 38.3461 114.146 38.5156C114.068 38.6842 113.959 38.8149 113.82 38.9077C113.68 38.9995 113.52 39.0455 113.338 39.0455C113.198 39.0455 113.086 39.0223 113.001 38.9759C112.917 38.9285 112.852 38.875 112.807 38.8153C112.761 38.7547 112.726 38.7045 112.702 38.6648H112.673V39.8182H112.338ZM112.668 37.9091C112.668 38.0739 112.692 38.2192 112.74 38.3452C112.788 38.4702 112.859 38.5682 112.952 38.6392C113.045 38.7093 113.158 38.7443 113.293 38.7443C113.433 38.7443 113.55 38.7074 113.643 38.6335C113.738 38.5587 113.809 38.4583 113.857 38.3324C113.905 38.2055 113.929 38.0644 113.929 37.9091C113.929 37.7557 113.905 37.6174 113.858 37.4943C113.812 37.3703 113.741 37.2723 113.646 37.2003C113.553 37.1274 113.435 37.0909 113.293 37.0909C113.156 37.0909 113.042 37.1255 112.949 37.1946C112.856 37.2628 112.786 37.3584 112.739 37.4815C112.691 37.6037 112.668 37.7462 112.668 37.9091ZM114.776 39.8182V36.8182H115.099V37.1648H115.139C115.164 37.1269 115.198 37.0786 115.241 37.0199C115.286 36.9602 115.349 36.9072 115.432 36.8608C115.515 36.8134 115.628 36.7898 115.77 36.7898C115.954 36.7898 116.116 36.8357 116.256 36.9276C116.396 37.0194 116.505 37.1496 116.584 37.3182C116.662 37.4867 116.702 37.6856 116.702 37.9148C116.702 38.1458 116.662 38.3461 116.584 38.5156C116.505 38.6842 116.396 38.8149 116.257 38.9077C116.118 38.9995 115.957 39.0455 115.776 39.0455C115.635 39.0455 115.523 39.0223 115.439 38.9759C115.355 38.9285 115.29 38.875 115.244 38.8153C115.199 38.7547 115.164 38.7045 115.139 38.6648H115.111V39.8182H114.776ZM115.105 37.9091C115.105 38.0739 115.129 38.2192 115.178 38.3452C115.226 38.4702 115.296 38.5682 115.389 38.6392C115.482 38.7093 115.596 38.7443 115.73 38.7443C115.87 38.7443 115.987 38.7074 116.081 38.6335C116.176 38.5587 116.247 38.4583 116.294 38.3324C116.342 38.2055 116.366 38.0644 116.366 37.9091C116.366 37.7557 116.343 37.6174 116.295 37.4943C116.249 37.3703 116.179 37.2723 116.084 37.2003C115.99 37.1274 115.872 37.0909 115.73 37.0909C115.594 37.0909 115.479 37.1255 115.386 37.1946C115.294 37.2628 115.223 37.3584 115.176 37.4815C115.129 37.6037 115.105 37.7462 115.105 37.9091ZM117.548 36.0909V39H117.213V36.0909H117.548ZM118.162 39V36.8182H118.498V39H118.162ZM118.333 36.4545C118.267 36.4545 118.211 36.4323 118.164 36.3878C118.117 36.3433 118.094 36.2898 118.094 36.2273C118.094 36.1648 118.117 36.1113 118.164 36.0668C118.211 36.0223 118.267 36 118.333 36C118.398 36 118.454 36.0223 118.5 36.0668C118.548 36.1113 118.571 36.1648 118.571 36.2273C118.571 36.2898 118.548 36.3433 118.5 36.3878C118.454 36.4323 118.398 36.4545 118.333 36.4545ZM119.998 39.0455C119.793 39.0455 119.617 38.9972 119.469 38.9006C119.322 38.804 119.208 38.6709 119.129 38.5014C119.049 38.3319 119.009 38.1383 119.009 37.9205C119.009 37.6989 119.05 37.5033 119.131 37.3338C119.214 37.1634 119.328 37.0303 119.475 36.9347C119.623 36.8381 119.795 36.7898 119.992 36.7898C120.146 36.7898 120.284 36.8182 120.407 36.875C120.53 36.9318 120.631 37.0114 120.71 37.1136C120.788 37.2159 120.837 37.3352 120.856 37.4716H120.521C120.495 37.3722 120.438 37.2841 120.35 37.2074C120.263 37.1297 120.146 37.0909 119.998 37.0909C119.867 37.0909 119.753 37.125 119.654 37.1932C119.557 37.2604 119.48 37.3556 119.425 37.4787C119.371 37.6009 119.344 37.7443 119.344 37.9091C119.344 38.0777 119.371 38.2244 119.424 38.3494C119.478 38.4744 119.554 38.5715 119.651 38.6406C119.75 38.7098 119.865 38.7443 119.998 38.7443C120.085 38.7443 120.164 38.7292 120.235 38.6989C120.306 38.6686 120.366 38.625 120.415 38.5682C120.465 38.5114 120.5 38.4432 120.521 38.3636H120.856C120.837 38.4924 120.79 38.6084 120.715 38.7116C120.641 38.8139 120.543 38.8954 120.421 38.956C120.3 39.0156 120.159 39.0455 119.998 39.0455ZM121.988 39.0511C121.85 39.0511 121.724 39.0251 121.612 38.973C121.499 38.92 121.409 38.8438 121.343 38.7443C121.277 38.6439 121.244 38.5227 121.244 38.3807C121.244 38.2557 121.268 38.1544 121.317 38.0767C121.367 37.9981 121.433 37.9366 121.515 37.892C121.597 37.8475 121.688 37.8144 121.788 37.7926C121.888 37.7699 121.989 37.7519 122.09 37.7386C122.223 37.7216 122.33 37.7088 122.413 37.7003C122.496 37.6908 122.557 37.6752 122.594 37.6534C122.633 37.6316 122.653 37.5937 122.653 37.5398V37.5284C122.653 37.3883 122.614 37.2794 122.538 37.2017C122.462 37.1241 122.347 37.0852 122.192 37.0852C122.032 37.0852 121.907 37.1203 121.816 37.1903C121.725 37.2604 121.661 37.3352 121.624 37.4148L121.306 37.3011C121.363 37.1686 121.439 37.0653 121.533 36.9915C121.629 36.9167 121.733 36.8646 121.846 36.8352C121.96 36.8049 122.071 36.7898 122.181 36.7898C122.251 36.7898 122.332 36.7983 122.423 36.8153C122.514 36.8314 122.603 36.8651 122.688 36.9162C122.774 36.9673 122.846 37.0445 122.903 37.1477C122.96 37.2509 122.988 37.3892 122.988 37.5625V39H122.653V38.7045H122.636C122.613 38.7519 122.575 38.8026 122.522 38.8565C122.469 38.9105 122.398 38.9564 122.31 38.9943C122.222 39.0322 122.115 39.0511 121.988 39.0511ZM122.039 38.75C122.172 38.75 122.283 38.724 122.374 38.6719C122.466 38.6198 122.535 38.5526 122.582 38.4702C122.629 38.3878 122.653 38.3011 122.653 38.2102V37.9034C122.638 37.9205 122.607 37.9361 122.559 37.9503C122.512 37.9635 122.457 37.9754 122.394 37.9858C122.333 37.9953 122.272 38.0038 122.214 38.0114C122.156 38.018 122.109 38.0237 122.073 38.0284C121.986 38.0398 121.905 38.0582 121.829 38.0838C121.754 38.1084 121.693 38.1458 121.647 38.196C121.602 38.2453 121.579 38.3125 121.579 38.3977C121.579 38.5142 121.622 38.6023 121.708 38.6619C121.795 38.7206 121.906 38.75 122.039 38.75ZM124.549 36.8182V37.1023H123.418V36.8182H124.549ZM123.748 36.2955H124.083V38.375C124.083 38.4697 124.096 38.5407 124.124 38.5881C124.152 38.6345 124.188 38.6657 124.232 38.6818C124.276 38.697 124.323 38.7045 124.373 38.7045C124.409 38.7045 124.44 38.7027 124.463 38.6989C124.487 38.6941 124.506 38.6903 124.52 38.6875L124.588 38.9886C124.566 38.9972 124.534 39.0057 124.493 39.0142C124.453 39.0237 124.401 39.0284 124.338 39.0284C124.244 39.0284 124.151 39.008 124.06 38.9673C123.97 38.9266 123.895 38.8646 123.836 38.7812C123.777 38.6979 123.748 38.5928 123.748 38.4659V36.2955ZM125.053 39V36.8182H125.388V39H125.053ZM125.223 36.4545C125.158 36.4545 125.102 36.4323 125.054 36.3878C125.008 36.3433 124.985 36.2898 124.985 36.2273C124.985 36.1648 125.008 36.1113 125.054 36.0668C125.102 36.0223 125.158 36 125.223 36C125.289 36 125.345 36.0223 125.391 36.0668C125.438 36.1113 125.462 36.1648 125.462 36.2273C125.462 36.2898 125.438 36.3433 125.391 36.3878C125.345 36.4323 125.289 36.4545 125.223 36.4545ZM126.888 39.0455C126.692 39.0455 126.519 38.9986 126.37 38.9048C126.222 38.8111 126.107 38.6799 126.023 38.5114C125.941 38.3428 125.9 38.1458 125.9 37.9205C125.9 37.6932 125.941 37.4948 126.023 37.3253C126.107 37.1558 126.222 37.0241 126.37 36.9304C126.519 36.8366 126.692 36.7898 126.888 36.7898C127.085 36.7898 127.258 36.8366 127.406 36.9304C127.554 37.0241 127.67 37.1558 127.752 37.3253C127.835 37.4948 127.877 37.6932 127.877 37.9205C127.877 38.1458 127.835 38.3428 127.752 38.5114C127.67 38.6799 127.554 38.8111 127.406 38.9048C127.258 38.9986 127.085 39.0455 126.888 39.0455ZM126.888 38.7443C127.038 38.7443 127.161 38.706 127.258 38.6293C127.354 38.5526 127.426 38.4517 127.472 38.3267C127.519 38.2017 127.542 38.0663 127.542 37.9205C127.542 37.7746 127.519 37.6387 127.472 37.5128C127.426 37.3868 127.354 37.285 127.258 37.2074C127.161 37.1297 127.038 37.0909 126.888 37.0909C126.739 37.0909 126.616 37.1297 126.519 37.2074C126.423 37.285 126.351 37.3868 126.305 37.5128C126.258 37.6387 126.235 37.7746 126.235 37.9205C126.235 38.0663 126.258 38.2017 126.305 38.3267C126.351 38.4517 126.423 38.5526 126.519 38.6293C126.616 38.706 126.739 38.7443 126.888 38.7443ZM128.724 37.6875V39H128.389V36.8182H128.713V37.1591H128.741C128.792 37.0483 128.87 36.9593 128.974 36.892C129.078 36.8239 129.213 36.7898 129.377 36.7898C129.525 36.7898 129.654 36.8201 129.765 36.8807C129.876 36.9403 129.962 37.0312 130.024 37.1534C130.085 37.2746 130.116 37.428 130.116 37.6136V39H129.781V37.6364C129.781 37.465 129.736 37.3314 129.647 37.2358C129.558 37.1392 129.436 37.0909 129.281 37.0909C129.174 37.0909 129.078 37.1141 128.994 37.1605C128.911 37.2069 128.845 37.2746 128.797 37.3636C128.748 37.4527 128.724 37.5606 128.724 37.6875Z" fill="black"/>
</svg>
